<svg width="62" height="54" viewBox="0 0 62 54" fill="none" xmlns="http://www.w3.org/2000/svg">
<path d="M31.8383 12.8033C31.712 13.2263 31.9534 13.6704 32.3762 13.7964L32.4686 13.8239L32.473 13.8188C32.8664 13.885 33.2546 13.6486 33.3703 13.2586C34.4078 9.77749 37.6766 7.34528 41.3186 7.34528C41.7598 7.34528 42.1179 6.98792 42.1179 6.54686C42.1179 6.10579 41.7598 5.74844 41.3186 5.74844C36.8261 5.74844 33.0507 8.73537 31.8383 12.8033ZM31.8383 12.8033L31.9821 12.8463M31.8383 12.8033C31.8383 12.8034 31.8383 12.8034 31.8383 12.8034L31.9821 12.8463M31.9821 12.8463C31.8796 13.1895 32.0753 13.5503 32.419 13.6526L31.9821 12.8463Z" fill="#13338A" stroke="#13338A" stroke-width="0.3"/>
<path d="M50.4087 38.3192H46.5128C46.1543 38.3192 45.8634 38.0288 45.8634 37.6708C45.8634 37.3128 46.1543 37.0224 46.5128 37.0224H50.4087C55.7791 37.0224 60.1487 32.659 60.1487 27.2962C60.1487 21.9333 55.7791 17.5699 50.4087 17.5699H50.315C50.1267 17.5699 49.9477 17.4884 49.8243 17.3462C49.701 17.2041 49.6453 17.0155 49.6722 16.8294C49.7302 16.4255 49.7594 16.0198 49.7594 15.6247C49.7594 10.977 45.9723 7.19527 41.318 7.19527C39.5073 7.19527 37.7805 7.76032 36.3241 8.82973C36.0041 9.06455 35.5496 8.96034 35.3645 8.6088C31.2399 0.765792 20.4668 -0.287443 14.8815 6.53529C12.5286 9.4096 11.6041 13.1486 12.3449 16.7928C12.4266 17.1953 12.1181 17.5704 11.7086 17.5704H11.4484C6.07798 17.5704 1.7084 21.9338 1.7084 27.2967C1.7084 32.6595 6.07798 37.0229 11.4484 37.0229H15.3443C15.7028 37.0229 15.9937 37.3133 15.9937 37.6713C15.9937 38.0293 15.7029 38.3197 15.3443 38.3197H11.4484C5.36177 38.3197 0.409668 33.3746 0.409668 27.2966C0.409668 21.3891 5.08761 16.5519 10.9387 16.2851C10.389 12.5044 11.44 8.69075 13.8759 5.71459C19.8558 -1.59071 31.3158 -0.771887 36.1602 7.37406C37.7056 6.40652 39.4741 5.89896 41.3178 5.89896C46.9568 5.89896 51.4252 10.6917 51.0342 16.2912C56.8313 16.6158 61.4472 21.4275 61.4472 27.2961C61.4472 33.3746 56.4951 38.3192 50.4084 38.3192L50.4087 38.3192Z" fill="#13338A"/>
<path d="M14.4579 37.3043C14.4579 46.3259 21.8077 53.6649 30.8414 53.6649C39.8753 53.6649 47.2249 46.3258 47.2249 37.3043C47.2249 28.2827 39.8753 20.9437 30.8414 20.9437C21.8075 20.9437 14.4579 28.2828 14.4579 37.3043ZM16.0569 37.3043C16.0569 29.1642 22.6892 22.5409 30.8414 22.5409C38.9936 22.5409 45.626 29.1641 45.626 37.3043C45.626 45.4444 38.9936 52.0677 30.8414 52.0677C22.6893 52.0677 16.0569 45.4445 16.0569 37.3043Z" fill="#13338A" stroke="#13338A" stroke-width="0.3"/>
<path d="M30.5128 43.8301C30.5128 44.1752 30.7931 44.4548 31.1382 44.4548C31.4833 44.4548 31.7636 44.1756 31.7636 43.8301V31.4874C31.7636 31.1423 31.4834 30.8627 31.1382 30.8627C30.7931 30.8627 30.5128 31.1423 30.5128 31.4874V43.8301Z" fill="#13338A" stroke="#13338A" stroke-width="0.3"/>
<path d="M31.1382 32.3718L34.4991 35.728C34.621 35.8498 34.7816 35.9108 34.9412 35.9109L31.1382 32.3718ZM31.1382 32.3718L27.7773 35.7279L27.7772 35.728L27.6712 35.6218L31.1382 32.3718ZM35.3835 35.7278C35.6278 35.4838 35.6277 35.0883 35.3833 34.8443L31.5803 31.0466C31.3361 30.8028 30.94 30.8026 30.696 31.0466L34.9412 35.9109C35.1006 35.9108 35.2613 35.8503 35.3835 35.7278ZM35.3835 35.7278C35.3835 35.7278 35.3835 35.7278 35.3835 35.7278L35.2773 35.6218L35.3833 35.728C35.3834 35.7279 35.3834 35.7279 35.3835 35.7278Z" fill="#13338A" stroke="#13338A" stroke-width="0.3"/>
</svg>
